<?xml version="1.0" encoding="UTF-8"?><svg xmlns="http://www.w3.org/2000/svg" xmlns:xlink="http://www.w3.org/1999/xlink" fill-opacity="1" color-rendering="auto" color-interpolation="auto" text-rendering="auto" stroke="black" stroke-linecap="square" width="1067" stroke-miterlimit="10" shape-rendering="auto" stroke-opacity="1" fill="black" stroke-dasharray="none" font-weight="normal" stroke-width="1" height="484" font-family="'Dialog'" font-style="normal" stroke-linejoin="miter" font-size="12px" stroke-dashoffset="0" image-rendering="auto">
  <!--Generated by ySVG 2.5-->
  <defs id="genericDefs"/>
  <g>
    <defs id="defs1">
      <linearGradient x1="215" gradientUnits="userSpaceOnUse" x2="258.534" y1="392.5" y2="448.2545" id="linearGradient1" spreadMethod="pad">
        <stop stop-opacity="0.8627" stop-color="rgb(255,255,255)" offset="0%"/>
        <stop stop-opacity="0.1255" stop-color="rgb(255,255,255)" offset="100%"/>
      </linearGradient>
      <linearGradient x1="521" gradientUnits="userSpaceOnUse" x2="582.0916" y1="265" y2="276.916" id="linearGradient2" spreadMethod="pad">
        <stop stop-opacity="0.8627" stop-color="rgb(255,255,255)" offset="0%"/>
        <stop stop-opacity="0.1255" stop-color="rgb(255,255,255)" offset="100%"/>
      </linearGradient>
      <linearGradient x1="619" gradientUnits="userSpaceOnUse" x2="755.3505" y1="265" y2="459.5654" id="linearGradient3" spreadMethod="pad">
        <stop stop-opacity="0.8627" stop-color="rgb(255,255,255)" offset="0%"/>
        <stop stop-opacity="0.1255" stop-color="rgb(255,255,255)" offset="100%"/>
      </linearGradient>
      <linearGradient x1="1140" gradientUnits="userSpaceOnUse" x2="1220" y1="288.5" y2="397.5" id="linearGradient4" spreadMethod="reflect">
        <stop stop-opacity="1" stop-color="rgb(232,238,247)" offset="0%"/>
        <stop stop-opacity="1" stop-color="rgb(183,201,227)" offset="100%"/>
      </linearGradient>
      <linearGradient x1="1140" gradientUnits="userSpaceOnUse" x2="1220" y1="531" y2="600.949" id="linearGradient5" spreadMethod="reflect">
        <stop stop-opacity="1" stop-color="rgb(232,238,247)" offset="0%"/>
        <stop stop-opacity="1" stop-color="rgb(183,201,227)" offset="100%"/>
      </linearGradient>
      <linearGradient x1="670" gradientUnits="userSpaceOnUse" x2="830" y1="305.5" y2="380.5" id="linearGradient6" spreadMethod="reflect">
        <stop stop-opacity="1" stop-color="rgb(232,238,247)" offset="0%"/>
        <stop stop-opacity="1" stop-color="rgb(183,201,227)" offset="100%"/>
      </linearGradient>
      <linearGradient x1="670" gradientUnits="userSpaceOnUse" x2="830" y1="528.4745" y2="603.4745" id="linearGradient7" spreadMethod="reflect">
        <stop stop-opacity="1" stop-color="rgb(232,238,247)" offset="0%"/>
        <stop stop-opacity="1" stop-color="rgb(183,201,227)" offset="100%"/>
      </linearGradient>
      <linearGradient x1="1140" gradientUnits="userSpaceOnUse" x2="1220" y1="409.75" y2="518.75" id="linearGradient8" spreadMethod="reflect">
        <stop stop-opacity="1" stop-color="rgb(232,238,247)" offset="0%"/>
        <stop stop-opacity="1" stop-color="rgb(183,201,227)" offset="100%"/>
      </linearGradient>
      <clipPath clipPathUnits="userSpaceOnUse" id="clipPath1">
        <path d="M0 0 L1067 0 L1067 484 L0 484 L0 0 Z"/>
      </clipPath>
      <clipPath clipPathUnits="userSpaceOnUse" id="clipPath2">
        <path d="M200 160 L1267 160 L1267 644 L200 644 L200 160 Z"/>
      </clipPath>
      <clipPath clipPathUnits="userSpaceOnUse" id="clipPath3">
        <path d="M-71.7225 -17.2125 L995.2775 -17.2125 L995.2775 466.7875 L-71.7225 466.7875 L-71.7225 -17.2125 Z"/>
      </clipPath>
    </defs>
    <g fill="white" text-rendering="geometricPrecision" shape-rendering="geometricPrecision" transform="translate(-200,-160)" stroke="white">
      <rect x="200" width="1067" height="484" y="160" clip-path="url(#clipPath2)" stroke="none"/>
    </g>
    <g text-rendering="geometricPrecision" shape-rendering="geometricPrecision" transform="matrix(1,0,0,1,71.7225,17.2125)">
      <g clip-path="url(#clipPath3)">
        <svg xml:space="preserve" opacity="1" writing-mode="lr-tb" stop-color="rgb(0, 0, 0)" shape-rendering="auto" glyph-orientation-horizontal="0deg" color-profile="auto" lighting-color="rgb(255, 255, 255)" color="rgb(0, 0, 0)" font-weight="400" alignment-baseline="auto" font-style="normal" version="1.1" color-interpolation-filters="linearrgb" text-anchor="start" stroke-linecap="butt" color-interpolation="srgb" font-variant="normal" word-spacing="normal" fill-opacity="1" text-rendering="auto" clip-path="none" text-decoration="none" letter-spacing="normal" viewBox="0 0 57 65" glyph-orientation-vertical="auto" display="inline" font-size-adjust="none" overflow="visible" fill="rgb(0, 0, 0)" font-stretch="normal" stroke-dasharray="none" id="svg1.Ebene_1" stroke-miterlimit="4" stop-opacity="1" color-rendering="auto" font-size="12" pointer-events="visiblepainted" mask="none" direction="ltr" baseline-shift="baseline" enable-background="new 0 0 57 65" fill-rule="nonzero" image-rendering="auto" stroke-dashoffset="0" width="57px" marker-end="none" clip="auto" cursor="auto" stroke="none" filter="none" visibility="visible" kerning="auto" stroke-width="1" font-family="&quot;Arial&quot;,&quot;Helvetica&quot;,sans-serif" flood-opacity="1" clip-rule="nonzero" src="none" height="65px" unicode-bidi="normal" stroke-linejoin="miter" stroke-opacity="1" flood-color="rgb(0, 0, 0)" dominant-baseline="auto" marker-start="none" x="0px" marker-mid="none" y="0px">
<g>
	
		<linearGradient gradientTransform="matrix(1 0 0 1 0.0801 -771.6914)" x1="26.5796" x2="27.8207" gradientUnits="userSpaceOnUse" y1="796.6533" y2="826.4517" id="svg1.SVGID_1_">
		<stop offset="0.2711" style="stop-color:#FFAB4F"/>
		<stop offset="1" style="stop-color:#FFD28F"/>
	</linearGradient>
	<path fill="url(#svg1.SVGID_1_)" d="M49.529,52.225c-4.396-4.396-10.951-5.884-12.063-6.109   V38.8H19.278c0,0,0.038,6.903,0,6.868c0,0-6.874,0.997-12.308,6.432C1.378,57.691,0.5,63.77,0.5,63.77   c0,1.937,1.575,3.492,3.523,3.492h48.51c1.947,0,3.521-1.558,3.521-3.492C56.055,63.768,54.211,56.906,49.529,52.225z" stroke-miterlimit="10" stroke="#ED9135"/>
	<path fill="#ECECEC" id="svg1.body_9_" d="M0.5,63.768c0,1.938,1.575,3.494,3.523,3.494h48.51   c1.947,0,3.521-1.559,3.521-3.494c0,0-1.844-6.861-6.525-11.543c-4.815-4.814-11.244-6.146-11.244-6.146   c-1.771,1.655-5.61,3.802-10.063,3.802c-4.453,0-8.292-2.146-10.063-3.802c0,0-5.755,0.586-11.189,6.021   C1.378,57.689,0.5,63.768,0.5,63.768z" stroke-miterlimit="10" stroke="#9B9B9B"/>
	<path fill="#2068A3" d="M28.106,34.486c-8.112,0-12.688,4.313-12.688,10.438c0,7.422,12.688,10.438,12.688,10.438   s14.688-3.016,14.688-10.438C42.793,39.75,36.215,34.486,28.106,34.486z M26.288,54.051c0,0-7.135-2.093-8.805-7.201   c-0.222-0.682,0.147-1.156,0.795-1.522V38.8h20.188v6.663c0.235,0.352,1.109,0.737,1.229,1.387   C40.445,50.917,26.288,54.051,26.288,54.051z" stroke="#2068A3"/>
	<path fill="#5491CF" d="M49.529,52.225c-2.239-2.24-5.041-3.724-7.396-4.67   c-2.854,5.51-14.027,7.807-14.027,7.807s-10.472-2.489-12.387-8.514c-2.439,0.771-5.787,2.287-8.749,5.25   c-5.592,5.592-6.47,11.67-6.47,11.67c0,1.937,1.575,3.492,3.523,3.492h48.51c1.948,0,3.522-1.558,3.522-3.492   C56.055,63.768,54.211,56.906,49.529,52.225z" stroke-miterlimit="10" stroke="#2068A3"/>
	<path fill="#5491CF" d="M13.404,45.173c1.15-1.81,2.039-3.832,3.332-5.397c-0.514,1.027-1.669,4.084-1.669,5.148   c0,5.186,10.366,9.079,14.688,10.438c-3.472,1.627-9.134-1.498-11.34-2.365c-3.601-1.419-4.071-3.063-5.89-4.857   C12.523,48.135,12.878,46,13.404,45.173z" stroke="#2068A3"/>
	<path fill="#5491CF" d="M45.777,44.924c-1.317-1.568-5.11-9.424-6.604-6.617c0.516,1.025,3.617,3.693,3.617,6.617   c0,5.186-10.266,8.576-16.693,9.145c1.429,4.934,11.367,1.293,13.804-0.316c3.563-2.354,4.557-5.133,7.852-3.705   C47.754,50.045,48.006,47.574,45.777,44.924z" stroke="#2068A3"/>
	<path fill="none" d="M30.777,55.167c0.357,0.836-0.153,1.983-0.352,2.813   c-0.256,1.084-0.072,2.104,0.102,3.186c0.164,1.02,0.156,2.107,0.25,3.167c0.082,0.916,0.482,1.849,0.357,2.75" stroke="#2068A3" stroke-linecap="round"/>
	<path fill="none" d="M23.695,54.417c-0.508,0.584-0.476,2.209-0.398,3   c0.116,1.183,0.456,2.099,0.333,3.333c-0.192,1.943,0.154,4.479-0.436,6.333" stroke="#2068A3" stroke-linecap="round"/>
	
		<radialGradient gradientTransform="matrix(1 0 0 1 0.0801 -771.6914)" gradientUnits="userSpaceOnUse" r="23.4236" cx="27.8228" id="svg1.face_x5F_white_1_" cy="798.418" fx="23.2533" fy="795.9283">
		<stop offset="0" style="stop-color:#FFD28F"/>
		<stop offset="1" style="stop-color:#FFAB4F"/>
	</radialGradient>
	<path fill="url(#svg1.face_x5F_white_1_)" id="svg1.face_x5F_white_3_" d="M43.676,24.357   c0.086,10.2-6.738,18.52-15.245,18.586c-8.504,0.068-15.468-8.146-15.554-18.344C12.794,14.4,19.618,6.079,28.123,6.012   C36.627,5.945,43.59,14.158,43.676,24.357z" stroke-miterlimit="10" stroke="#ED9135"/>
	
		<linearGradient gradientTransform="matrix(0.275 0 0 -0.2733 -589.5001 -1032.9376)" x1="2236.3486" x2="2259.9785" gradientUnits="userSpaceOnUse" y1="-3813.3281" y2="-3906.7793" id="svg1.face_highlight_2_">
		<stop offset="0" style="stop-color:#FFFFFF;stop-opacity:0.72"/>
		<stop offset="1" style="stop-color:#FFFFFF;stop-opacity:0.2067"/>
	</linearGradient>
	<path fill="url(#svg1.face_highlight_2_)" id="svg1.face_highlight_1_" d="M27.958,7.333c-6.035,0.047-10.747,4.493-12.787,10.386   c-0.664,1.919-0.294,4.043,0.98,5.629c2.73,3.398,5.729,6.283,9.461,8.088c3.137,1.518,7.535,2.384,11.893,1.247   c2.274-0.592,3.988-2.459,4.375-4.766c0.181-1.094,0.293-2.289,0.283-3.553C42.083,14.952,36.271,7.268,27.958,7.333z"/>
	<path fill="#FFB380" d="M32.215,10.938c0,0,5.688,2.75,7.688,8.125c2.104,5.652,4.123,8.232,4.188,8   c1.875-6.794,1.063-21.438-10.17-21.587C13.467-2.187,8.342,17.438,10.029,25.126c1.078,4.911,2.234,6.686,3.938,8.08   C13.966,33.205,15.028,18.563,32.215,10.938z" stroke="#953606"/>
	<path fill="#CC9869" d="M32.215,10.938   c0,0,5.688,2.75,7.688,8.125c2.104,5.652,4.123,8.232,4.188,8c1.875-6.794,1.063-21.438-10.17-21.587   C13.467-2.187,8.342,17.438,10.029,25.126c1.078,4.911,2.234,6.686,3.938,8.08C13.966,33.205,15.028,18.563,32.215,10.938z" stroke="#99724F" stroke-linecap="round" stroke-linejoin="round"/>
</g>
</svg>
      </g>
    </g>
    <g fill="rgb(255,153,0)" text-rendering="geometricPrecision" shape-rendering="geometricPrecision" transform="matrix(1,0,0,1,-200,-160)" stroke="rgb(255,153,0)">
      <rect x="215" y="392.5" clip-path="url(#clipPath2)" width="170" rx="5" ry="5" height="115" stroke="none"/>
      <path fill="url(#linearGradient1)" d="M217.5 402.5 Q217.5 395 225 395 L315.5 395 Q323 395 323 402.5 Q323 410 277.75 446 Q232.5 482 225 482 Q217.5 482 217.5 474.5 Z" clip-path="url(#clipPath2)" stroke="none"/>
    </g>
    <g stroke-linecap="butt" transform="matrix(1,0,0,1,-200,-160)" text-rendering="geometricPrecision" font-family="sans-serif" shape-rendering="geometricPrecision" font-weight="bold" stroke-miterlimit="1.45">
      <text x="256.8545" xml:space="preserve" y="454.1543" clip-path="url(#clipPath2)" stroke="none">BOINC Client</text>
    </g>
    <g fill="rgb(51,102,255)" text-rendering="geometricPrecision" shape-rendering="geometricPrecision" transform="matrix(1,0,0,1,-200,-160)" stroke="rgb(51,102,255)">
      <rect x="521" y="265" clip-path="url(#clipPath2)" width="98" rx="1.5" ry="1.5" height="363.75" stroke="none"/>
      <path fill="url(#linearGradient2)" d="M521.75 268 Q521.75 265.75 524 265.75 L581.7 265.75 Q583.95 265.75 583.95 268 Q583.95 270.25 555.1 412.75 Q526.25 555.25 524 555.25 Q521.75 555.25 521.75 553 Z" clip-path="url(#clipPath2)" stroke="none"/>
    </g>
    <g stroke-linecap="butt" transform="matrix(1,0,0,1,-200,-160)" text-rendering="geometricPrecision" font-family="sans-serif" shape-rendering="geometricPrecision" font-weight="bold" stroke-miterlimit="1.45">
      <text x="555.0176" xml:space="preserve" y="437.0605" clip-path="url(#clipPath2)" stroke="none">Web</text>
      <text x="539.3145" xml:space="preserve" y="451.0293" clip-path="url(#clipPath2)" stroke="none">Interface</text>
      <text x="536.6748" xml:space="preserve" y="464.998" clip-path="url(#clipPath2)" stroke="none">(XMLRPC)</text>
    </g>
    <g fill="rgb(153,204,255)" text-rendering="geometricPrecision" shape-rendering="geometricPrecision" transform="matrix(1,0,0,1,-200,-160)" stroke="rgb(153,204,255)">
      <rect x="619" y="265" clip-path="url(#clipPath2)" width="633" rx="1.5" ry="1.5" height="363.75" stroke="none"/>
      <path fill="url(#linearGradient3)" d="M619.75 268 Q619.75 265.75 622 265.75 L1027.45 265.75 Q1029.7 265.75 1029.7 268 Q1029.7 270.25 826.975 412.75 Q624.25 555.25 622 555.25 Q619.75 555.25 619.75 553 Z" clip-path="url(#clipPath2)" stroke="none"/>
    </g>
    <g fill="url(#linearGradient4)" text-rendering="geometricPrecision" shape-rendering="geometricPrecision" transform="matrix(1,0,0,1,-200,-160)" stroke="url(#linearGradient4)">
      <path d="M1140 310.3 C1142.4 288.5 1217.6 288.5 1220 310.3 L1220 375.7 C1217.6 397.5 1142.4 397.5 1140 375.7 Z" stroke="none" clip-path="url(#clipPath2)"/>
    </g>
    <g text-rendering="geometricPrecision" stroke-miterlimit="1.45" shape-rendering="geometricPrecision" transform="matrix(1,0,0,1,-200,-160)" stroke-linecap="butt">
      <path fill="none" d="M1140 310.3 C1142.4 288.5 1217.6 288.5 1220 310.3 L1220 375.7 C1217.6 397.5 1142.4 397.5 1140 375.7 Z" clip-path="url(#clipPath2)"/>
      <path fill="none" d="M1220 310.3 C1217.6 332.1 1142.4 332.1 1140 310.3" clip-path="url(#clipPath2)"/>
      <text x="1158.6689" y="340.1699" clip-path="url(#clipPath2)" font-family="sans-serif" stroke="none" font-weight="bold" xml:space="preserve">BOINC</text>
      <text x="1170.4463" y="354.1387" clip-path="url(#clipPath2)" font-family="sans-serif" stroke="none" font-weight="bold" xml:space="preserve">DB</text>
    </g>
    <g fill="url(#linearGradient5)" text-rendering="geometricPrecision" shape-rendering="geometricPrecision" transform="matrix(1,0,0,1,-200,-160)" stroke="url(#linearGradient5)">
      <rect x="1140" width="80" height="69.949" y="531" clip-path="url(#clipPath2)" stroke="none"/>
    </g>
    <g text-rendering="geometricPrecision" stroke-miterlimit="1.45" shape-rendering="geometricPrecision" transform="matrix(1,0,0,1,-200,-160)" stroke-linecap="butt">
      <rect fill="none" x="1140" width="80" height="69.949" y="531" clip-path="url(#clipPath2)"/>
      <path fill="none" d="M1150 531 L1150 600.949 M1140 541 L1220 541 M1150 531 Z" clip-path="url(#clipPath2)"/>
      <text x="1165.6299" y="563.1444" clip-path="url(#clipPath2)" font-family="sans-serif" stroke="none" font-weight="bold" xml:space="preserve">File </text>
      <text x="1153.3164" y="577.1132" clip-path="url(#clipPath2)" font-family="sans-serif" stroke="none" font-weight="bold" xml:space="preserve">Storage</text>
    </g>
    <g fill="url(#linearGradient6)" text-rendering="geometricPrecision" shape-rendering="geometricPrecision" transform="matrix(1,0,0,1,-200,-160)" stroke="url(#linearGradient6)">
      <path d="M670 305.5 L830 305.5 L830 380.5 L670 380.5 Z" stroke="none" clip-path="url(#clipPath2)"/>
    </g>
    <g text-rendering="geometricPrecision" stroke-miterlimit="1.45" shape-rendering="geometricPrecision" transform="matrix(1,0,0,1,-200,-160)" stroke-linecap="butt">
      <path fill="none" d="M670 305.5 L830 305.5 L830 380.5 L670 380.5 Z" clip-path="url(#clipPath2)"/>
      <text x="709.9189" y="347.1543" clip-path="url(#clipPath2)" font-family="sans-serif" stroke="none" font-weight="bold" xml:space="preserve">Task Server</text>
    </g>
    <g fill="url(#linearGradient7)" text-rendering="geometricPrecision" shape-rendering="geometricPrecision" transform="matrix(1,0,0,1,-200,-160)" stroke="url(#linearGradient7)">
      <path d="M670 528.4745 L830 528.4745 L830 603.4745 L670 603.4745 Z" stroke="none" clip-path="url(#clipPath2)"/>
    </g>
    <g text-rendering="geometricPrecision" stroke-miterlimit="1.45" shape-rendering="geometricPrecision" transform="matrix(1,0,0,1,-200,-160)" stroke-linecap="butt">
      <path fill="none" d="M670 528.4745 L830 528.4745 L830 603.4745 L670 603.4745 Z" clip-path="url(#clipPath2)"/>
      <text x="709.6758" y="570.1288" clip-path="url(#clipPath2)" font-family="sans-serif" stroke="none" font-weight="bold" xml:space="preserve">Data Server</text>
    </g>
    <g fill="url(#linearGradient8)" text-rendering="geometricPrecision" shape-rendering="geometricPrecision" transform="matrix(1,0,0,1,-200,-160)" stroke="url(#linearGradient8)">
      <path d="M1140 431.55 C1142.4 409.75 1217.6 409.75 1220 431.55 L1220 496.95 C1217.6 518.75 1142.4 518.75 1140 496.95 Z" stroke="none" clip-path="url(#clipPath2)"/>
    </g>
    <g text-rendering="geometricPrecision" stroke-miterlimit="1.45" shape-rendering="geometricPrecision" transform="matrix(1,0,0,1,-200,-160)" stroke-linecap="butt">
      <path fill="none" d="M1140 431.55 C1142.4 409.75 1217.6 409.75 1220 431.55 L1220 496.95 C1217.6 518.75 1142.4 518.75 1140 496.95 Z" clip-path="url(#clipPath2)"/>
      <path fill="none" d="M1220 431.55 C1217.6 453.35 1142.4 453.35 1140 431.55" clip-path="url(#clipPath2)"/>
      <text x="1166.5615" y="461.4199" clip-path="url(#clipPath2)" font-family="sans-serif" stroke="none" font-weight="bold" xml:space="preserve">APP</text>
      <text x="1170.4463" y="475.3887" clip-path="url(#clipPath2)" font-family="sans-serif" stroke="none" font-weight="bold" xml:space="preserve">DB</text>
    </g>
    <g text-rendering="geometricPrecision" stroke-miterlimit="1.45" shape-rendering="geometricPrecision" transform="matrix(1,0,0,1,-200,-160)" stroke-linecap="butt">
      <path fill="none" d="M300 255.9512 L300 381.5052" clip-path="url(#clipPath2)"/>
    </g>
    <g text-rendering="geometricPrecision" stroke-miterlimit="1.45" shape-rendering="geometricPrecision" transform="matrix(1,0,0,1,-200,-160)" stroke-linecap="butt">
      <path d="M300 244.9512 L294 256.9512 L306 256.9512 Z" stroke="none" clip-path="url(#clipPath2)"/>
      <path d="M300 392.5052 L306 380.5052 L294 380.5052 Z" clip-path="url(#clipPath2)" stroke="none"/>
      <path fill="none" d="M396.0005 448.8889 L509.9959 447.5695" clip-path="url(#clipPath2)"/>
      <path d="M385.0012 449.0162 L397.0699 454.8769 L396.931 442.8777 Z" clip-path="url(#clipPath2)" stroke="none"/>
      <path d="M520.9952 447.4422 L508.9265 441.5815 L509.0654 453.5807 Z" clip-path="url(#clipPath2)" stroke="none"/>
      <text x="406.0635" xml:space="preserve" y="482.3855" clip-path="url(#clipPath2)" font-family="sans-serif" stroke="none">(ports: 80, 443)</text>
      <path fill="none" d="M841.0214 343 L1128.9695 343" clip-path="url(#clipPath2)"/>
      <path d="M830.0214 343 L842.0214 349 L842.0214 337 Z" clip-path="url(#clipPath2)" stroke="none"/>
      <path d="M1139.9695 343 L1127.9695 337 L1127.9695 349 Z" clip-path="url(#clipPath2)" stroke="none"/>
      <path fill="none" d="M832.0705 385.5573 L1130.1949 540.1484" clip-path="url(#clipPath2)"/>
      <path d="M822.3053 380.4936 L830.1962 391.3441 L835.7203 380.6912 Z" clip-path="url(#clipPath2)" stroke="none"/>
      <path d="M1139.9602 545.212 L1132.0692 534.3616 L1126.5453 545.0145 Z" clip-path="url(#clipPath2)" stroke="none"/>
      <path fill="none" d="M841.0214 565.9745 L1128.9695 565.9745" clip-path="url(#clipPath2)"/>
      <path d="M830.0214 565.9745 L842.0214 571.9745 L842.0214 559.9745 Z" clip-path="url(#clipPath2)" stroke="none"/>
      <path d="M1139.9695 565.9745 L1127.9695 559.9745 L1127.9695 571.9745 Z" clip-path="url(#clipPath2)" stroke="none"/>
      <path fill="none" d="M840.6085 368.5495 L1129.3823 449.977" clip-path="url(#clipPath2)"/>
      <path d="M830.0214 365.5641 L839.9426 374.5957 L843.1993 363.0461 Z" clip-path="url(#clipPath2)" stroke="none"/>
      <path d="M1139.9695 452.9623 L1130.0482 443.9308 L1126.7915 455.4804 Z" clip-path="url(#clipPath2)" stroke="none"/>
    </g>
  </g>
</svg>
